<mxfile host="app.diagrams.net" modified="2024-05-02T04:49:24.079Z" agent="Mozilla/5.0 (Windows NT 10.0; Win64; x64) AppleWebKit/537.36 (KHTML, like Gecko) Chrome/124.0.0.0 Safari/537.36" version="24.3.1" etag="mD2m-1AZWH9o49T_e2Oe" type="github">
  <diagram name="Page-1" id="crKuEAGFltX46NYWID3b">
    <mxGraphModel>
      <root>
        <mxCell id="0" />
        <mxCell id="1" parent="0" />
      </root>
    </mxGraphModel>
  </diagram>
</mxfile>
